# xmcd
#
# Track frame offsets:
#	150
#	12672
#	31257
#	50863
#	70826
#	85796
#	105279
#	122324
#	135887
#	155534
#	168821
#	183482
#	200388
#	215893
#	229888
#	246564
#	263334
#	277853
#	297726
#	314971
#	334122
#
# Disc length: 4666 seconds
#
# Revision: 1
# Processed by: cddbd v1.5.2PL0 Copyright (c) Steve Scherf et al.
# Submitted via: audiograbber 1.83.01
#
DISCID=34123815
DTITLE=Mastermix - Pro Disc 110 - August 2009
DYEAR=2009
DGENRE=Pop
TTITLE0=Benassi Vs Bowie - DJ
TTITLE1=Ciara Ft Missy Elliott - Work
TTITLE2=Drake - Best I Ever Had
TTITLE3=The Gossip - Love Long Distance
TTITLE4=Keri Hilson Ft Trina and Keyshia Cole - Get Your Money Up
TTITLE5=Kasabian - Where Did All The Love Go
TTITLE6=The Killers - A Dustland Fairytale
TTITLE7=Madina Lake - Let's Get Outta Here
TTITLE8=Daniel Merriweather - Impossible
TTITLE9=MPHO - Box 'N' Locks
TTITLE10=Mr Hudson Ft Kanye West - Supernova
TTITLE11=The Noisettes - Every Now And Then
TTITLE12=Pink - Funhouse
TTITLE13=Pitbull - I Know You Want Me (Calle Ocho)
TTITLE14=The Prodigy - Take Me To The Hospital
TTITLE15=Rich Girl - He Ain't With Me Now (Tho)
TTITLE16=September - Until I Die
TTITLE17=Miike Snow - Animal
TTITLE18=Taylor Swift - You Belong To Me
TTITLE19=U2 - I'll Go Crazy If I Don't Go Crazy Tonight
TTITLE20=Veronicas - 4Ever
EXTD=
EXTT0=
EXTT1=
EXTT2=
EXTT3=
EXTT4=
EXTT5=
EXTT6=
EXTT7=
EXTT8=
EXTT9=
EXTT10=
EXTT11=
EXTT12=
EXTT13=
EXTT14=
EXTT15=
EXTT16=
EXTT17=
EXTT18=
EXTT19=
EXTT20=
PLAYORDER=
